<svg width="278" height="84" viewBox="0 0 278 84" fill="none" xmlns="http://www.w3.org/2000/svg">
<path d="M15.256 37.576C12.976 37.576 11.02 37.192 9.388 36.424C7.78 35.656 6.472 34.636 5.464 33.364C4.456 32.068 3.712 30.64 3.232 29.08C2.752 27.52 2.512 25.96 2.512 24.4C2.512 22.888 2.764 21.364 3.268 19.828C3.796 18.268 4.576 16.84 5.608 15.544C6.664 14.248 7.972 13.204 9.532 12.412C11.116 11.62 12.964 11.224 15.076 11.224C17.284 11.224 19.18 11.62 20.764 12.412C22.372 13.204 23.692 14.26 24.724 15.58C25.756 16.876 26.524 18.292 27.028 19.828C27.556 21.364 27.82 22.888 27.82 24.4C27.82 25.888 27.556 27.412 27.028 28.972C26.524 30.508 25.744 31.936 24.688 33.256C23.656 34.552 22.36 35.596 20.8 36.388C19.24 37.18 17.392 37.576 15.256 37.576ZM15.436 35.704C16.828 35.704 18.028 35.392 19.036 34.768C20.068 34.144 20.908 33.316 21.556 32.284C22.228 31.228 22.72 30.076 23.032 28.828C23.344 27.556 23.5 26.296 23.5 25.048C23.5 23.512 23.32 22.036 22.96 20.62C22.6 19.18 22.048 17.896 21.304 16.768C20.584 15.616 19.684 14.716 18.604 14.068C17.524 13.396 16.276 13.06 14.86 13.06C13.468 13.06 12.256 13.384 11.224 14.032C10.192 14.68 9.352 15.532 8.704 16.588C8.056 17.62 7.564 18.772 7.228 20.044C6.916 21.292 6.76 22.552 6.76 23.824C6.76 25.072 6.928 26.392 7.264 27.784C7.6 29.176 8.116 30.472 8.812 31.672C9.508 32.872 10.396 33.844 11.476 34.588C12.58 35.332 13.9 35.704 15.436 35.704ZM40.069 13.384C39.373 13.384 38.845 13.516 38.485 13.78C38.125 14.044 37.885 14.404 37.765 14.86C37.645 15.292 37.585 15.784 37.585 16.336V25.66C37.585 27.076 37.693 28.372 37.909 29.548C38.149 30.7 38.521 31.708 39.025 32.572C39.553 33.412 40.261 34.072 41.149 34.552C42.061 35.032 43.165 35.284 44.461 35.308C46.069 35.308 47.389 34.948 48.421 34.228C49.453 33.508 50.221 32.476 50.725 31.132C51.253 29.788 51.529 28.192 51.553 26.344L51.625 16.444C51.625 15.916 51.637 15.412 51.661 14.932C51.685 14.428 51.709 13.996 51.733 13.636C51.325 13.66 50.881 13.684 50.401 13.708C49.921 13.732 49.489 13.756 49.105 13.78V11.8H56.377V13.384C55.585 13.408 55.009 13.576 54.649 13.888C54.289 14.176 54.061 14.608 53.965 15.184C53.869 15.736 53.821 16.468 53.821 17.38L53.785 25.948C53.785 27.676 53.581 29.26 53.173 30.7C52.789 32.116 52.189 33.34 51.373 34.372C50.581 35.404 49.561 36.196 48.313 36.748C47.089 37.3 45.637 37.576 43.957 37.576C42.013 37.576 40.381 37.312 39.061 36.784C37.741 36.256 36.685 35.476 35.893 34.444C35.125 33.388 34.573 32.104 34.237 30.592C33.901 29.056 33.733 27.292 33.733 25.3V17.524C33.733 16.876 33.745 16.168 33.769 15.4C33.817 14.632 33.853 14.044 33.877 13.636C33.469 13.66 33.025 13.684 32.545 13.708C32.065 13.708 31.633 13.72 31.249 13.744V11.8H40.069V13.384ZM60.3688 37V35.416C61.1608 35.368 61.7248 35.2 62.0608 34.912C62.4208 34.624 62.6488 34.192 62.7448 33.616C62.8408 33.04 62.8888 32.308 62.8888 31.42V16.444C62.8888 15.916 62.9008 15.412 62.9248 14.932C62.9488 14.428 62.9728 13.996 62.9968 13.636C62.5888 13.66 62.1448 13.684 61.6648 13.708C61.1848 13.732 60.7528 13.756 60.3688 13.78V11.8C61.8328 11.776 63.3088 11.764 64.7968 11.764C66.2848 11.74 67.7848 11.74 69.2968 11.764C71.5528 11.764 73.4128 12.028 74.8768 12.556C76.3408 13.06 77.4328 13.816 78.1528 14.824C78.8968 15.832 79.2568 17.104 79.2328 18.64C79.2568 19.6 79.0648 20.56 78.6568 21.52C78.2488 22.456 77.5648 23.296 76.6048 24.04C75.6448 24.784 74.3248 25.348 72.6448 25.732C73.1248 26.02 73.5568 26.416 73.9408 26.92C74.3248 27.424 74.7208 27.988 75.1288 28.612L77.3248 31.996C77.7808 32.716 78.2008 33.328 78.5848 33.832C78.9688 34.336 79.4008 34.732 79.8808 35.02C80.3608 35.284 80.9368 35.416 81.6088 35.416V37H76.6048C75.9808 36.472 75.4408 35.908 74.9848 35.308C74.5528 34.684 74.0848 33.988 73.5808 33.22L71.0968 29.188C70.7848 28.708 70.4488 28.192 70.0888 27.64C69.7528 27.088 69.3808 26.62 68.9728 26.236C68.5888 26.236 68.2048 26.236 67.8208 26.236C67.4608 26.236 67.0888 26.236 66.7048 26.236V32.176C66.7048 32.824 66.6928 33.412 66.6688 33.94C66.6688 34.444 66.6448 34.852 66.5968 35.164C66.8848 35.14 67.1848 35.128 67.4968 35.128C67.8328 35.104 68.1568 35.08 68.4688 35.056C68.8048 35.032 69.0928 35.02 69.3328 35.02V37H60.3688ZM68.7928 24.472C70.1128 24.448 71.2408 24.244 72.1768 23.86C73.1128 23.452 73.8328 22.84 74.3368 22.024C74.8408 21.184 75.0928 20.104 75.0928 18.784C75.0928 17.8 74.9488 16.972 74.6608 16.3C74.3728 15.628 73.9648 15.088 73.4368 14.68C72.9088 14.248 72.2728 13.948 71.5288 13.78C70.8088 13.588 70.0288 13.492 69.1888 13.492C68.4208 13.492 67.8568 13.636 67.4968 13.924C67.1608 14.212 66.9448 14.632 66.8488 15.184C66.7528 15.736 66.7048 16.444 66.7048 17.308V24.364C67.0648 24.388 67.4008 24.424 67.7128 24.472C68.0488 24.496 68.4088 24.496 68.7928 24.472ZM109.586 19.576C109.466 18.352 109.154 17.248 108.65 16.264C108.146 15.28 107.45 14.5 106.562 13.924C105.674 13.324 104.57 13.036 103.25 13.06C101.906 13.06 100.838 13.432 100.046 14.176C99.2544 14.92 98.8584 15.82 98.8584 16.876C98.8584 17.812 99.1224 18.604 99.6504 19.252C100.178 19.876 100.886 20.44 101.774 20.944C102.686 21.448 103.706 21.952 104.834 22.456C105.746 22.84 106.67 23.272 107.606 23.752C108.542 24.232 109.394 24.784 110.162 25.408C110.93 26.008 111.542 26.74 111.998 27.604C112.454 28.444 112.682 29.44 112.682 30.592C112.682 31.936 112.334 33.136 111.638 34.192C110.942 35.248 109.946 36.076 108.65 36.676C107.378 37.276 105.83 37.576 104.006 37.576C102.974 37.576 101.882 37.42 100.73 37.108C99.6024 36.796 98.5704 36.352 97.6344 35.776L97.8144 37.288H95.6184L95.4744 29.368H97.2024C97.3944 31.456 98.1384 33.04 99.4344 34.12C100.754 35.176 102.326 35.704 104.15 35.704C105.062 35.704 105.89 35.536 106.634 35.2C107.378 34.864 107.966 34.384 108.398 33.76C108.83 33.136 109.046 32.404 109.046 31.564C109.046 30.58 108.746 29.752 108.146 29.08C107.57 28.408 106.826 27.832 105.914 27.352C105.026 26.872 104.09 26.416 103.106 25.984C102.122 25.552 101.162 25.096 100.226 24.616C99.3144 24.136 98.4864 23.584 97.7424 22.96C96.9984 22.336 96.4104 21.604 95.9784 20.764C95.5464 19.9 95.3304 18.892 95.3304 17.74C95.3304 17.068 95.4504 16.36 95.6904 15.616C95.9304 14.872 96.3384 14.164 96.9144 13.492C97.4904 12.82 98.2704 12.28 99.2544 11.872C100.262 11.44 101.522 11.224 103.034 11.224C103.946 11.224 104.966 11.356 106.094 11.62C107.246 11.884 108.29 12.352 109.226 13.024L109.082 11.512H111.242V19.576H109.586ZM129.608 27.892C129.608 26.86 129.452 26.116 129.14 25.66C128.852 25.204 128.408 24.928 127.808 24.832C127.208 24.712 126.464 24.676 125.576 24.724L123.488 24.796V32.284C123.488 32.932 123.476 33.508 123.452 34.012C123.452 34.492 123.428 34.888 123.38 35.2L129.572 35.128C130.508 35.104 131.348 34.936 132.092 34.624C132.836 34.288 133.424 33.724 133.856 32.932C134.288 32.14 134.504 31.06 134.504 29.692H136.088L135.872 37H117.152V35.416C117.944 35.368 118.508 35.2 118.844 34.912C119.204 34.624 119.432 34.192 119.528 33.616C119.624 33.04 119.672 32.308 119.672 31.42V16.444C119.672 15.916 119.684 15.412 119.708 14.932C119.732 14.428 119.756 13.996 119.78 13.636C119.372 13.66 118.928 13.684 118.448 13.708C117.968 13.732 117.536 13.756 117.152 13.78V11.8H134.72L134.9 18.316H133.316C133.316 16.948 133.088 15.904 132.632 15.184C132.2 14.464 131.624 13.984 130.904 13.744C130.208 13.504 129.452 13.396 128.636 13.42L126.116 13.492C125.372 13.492 124.808 13.624 124.424 13.888C124.04 14.128 123.788 14.536 123.668 15.112C123.548 15.664 123.488 16.42 123.488 17.38V23.032H129.428L129.212 19.936H131.192V27.892H129.608ZM140.661 37V35.416C141.453 35.368 142.017 35.2 142.353 34.912C142.713 34.624 142.941 34.192 143.037 33.616C143.133 33.04 143.181 32.308 143.181 31.42V16.444C143.181 15.916 143.193 15.412 143.217 14.932C143.241 14.428 143.265 13.996 143.289 13.636C142.881 13.66 142.437 13.684 141.957 13.708C141.477 13.732 141.045 13.756 140.661 13.78V11.8C142.125 11.776 143.601 11.764 145.089 11.764C146.577 11.74 148.077 11.74 149.589 11.764C151.845 11.764 153.705 12.028 155.169 12.556C156.633 13.06 157.725 13.816 158.445 14.824C159.189 15.832 159.549 17.104 159.525 18.64C159.549 19.6 159.357 20.56 158.949 21.52C158.541 22.456 157.857 23.296 156.897 24.04C155.937 24.784 154.617 25.348 152.937 25.732C153.417 26.02 153.849 26.416 154.233 26.92C154.617 27.424 155.013 27.988 155.421 28.612L157.617 31.996C158.073 32.716 158.493 33.328 158.877 33.832C159.261 34.336 159.693 34.732 160.173 35.02C160.653 35.284 161.229 35.416 161.901 35.416V37H156.897C156.273 36.472 155.733 35.908 155.277 35.308C154.845 34.684 154.377 33.988 153.873 33.22L151.389 29.188C151.077 28.708 150.741 28.192 150.381 27.64C150.045 27.088 149.673 26.62 149.265 26.236C148.881 26.236 148.497 26.236 148.113 26.236C147.753 26.236 147.381 26.236 146.997 26.236V32.176C146.997 32.824 146.985 33.412 146.961 33.94C146.961 34.444 146.937 34.852 146.889 35.164C147.177 35.14 147.477 35.128 147.789 35.128C148.125 35.104 148.449 35.08 148.761 35.056C149.097 35.032 149.385 35.02 149.625 35.02V37H140.661ZM149.085 24.472C150.405 24.448 151.533 24.244 152.469 23.86C153.405 23.452 154.125 22.84 154.629 22.024C155.133 21.184 155.385 20.104 155.385 18.784C155.385 17.8 155.241 16.972 154.953 16.3C154.665 15.628 154.257 15.088 153.729 14.68C153.201 14.248 152.565 13.948 151.821 13.78C151.101 13.588 150.321 13.492 149.481 13.492C148.713 13.492 148.149 13.636 147.789 13.924C147.453 14.212 147.237 14.632 147.141 15.184C147.045 15.736 146.997 16.444 146.997 17.308V24.364C147.357 24.388 147.693 24.424 148.005 24.472C148.341 24.496 148.701 24.496 149.085 24.472ZM174.346 37.324L166.138 18.1C165.706 17.092 165.382 16.228 165.166 15.508C164.95 14.788 164.818 14.188 164.77 13.708C164.434 13.732 164.098 13.744 163.762 13.744C163.426 13.744 163.102 13.756 162.79 13.78V11.8H171.898L171.862 13.42C170.782 13.444 170.074 13.744 169.738 14.32C169.426 14.896 169.51 15.76 169.99 16.912C170.542 18.304 171.082 19.672 171.61 21.016C172.162 22.36 172.75 23.764 173.374 25.228C173.878 26.452 174.358 27.604 174.814 28.684C175.27 29.764 175.666 30.724 176.002 31.564H176.038C176.302 30.772 176.578 29.98 176.866 29.188C177.154 28.372 177.478 27.472 177.838 26.488C178.414 24.856 178.918 23.44 179.35 22.24C179.782 21.04 180.166 19.972 180.502 19.036C180.838 18.1 181.138 17.26 181.402 16.516C181.594 15.964 181.786 15.436 181.978 14.932C182.194 14.404 182.398 13.972 182.59 13.636C182.158 13.66 181.69 13.684 181.186 13.708C180.682 13.732 180.226 13.756 179.818 13.78V11.8H187.378V13.384C186.418 13.432 185.65 13.72 185.074 14.248C184.498 14.776 183.97 15.7 183.49 17.02C183.322 17.452 183.142 17.92 182.95 18.424C182.782 18.904 182.566 19.48 182.302 20.152C182.062 20.8 181.774 21.592 181.438 22.528C181.102 23.464 180.682 24.616 180.178 25.984C179.698 27.328 179.11 28.924 178.414 30.772C177.742 32.62 176.938 34.804 176.002 37.324H174.346ZM198.787 13.384C198.019 13.408 197.455 13.576 197.095 13.888C196.735 14.176 196.507 14.608 196.411 15.184C196.315 15.736 196.267 16.468 196.267 17.38V32.176C196.267 32.824 196.255 33.412 196.231 33.94C196.231 34.444 196.207 34.852 196.159 35.164C196.567 35.116 197.011 35.092 197.491 35.092C197.995 35.068 198.427 35.044 198.787 35.02V37H189.931V35.416C190.723 35.368 191.287 35.2 191.623 34.912C191.983 34.624 192.211 34.192 192.307 33.616C192.403 33.04 192.451 32.308 192.451 31.42V16.444C192.451 15.916 192.463 15.412 192.487 14.932C192.511 14.428 192.535 13.996 192.559 13.636C192.151 13.66 191.707 13.684 191.227 13.708C190.747 13.732 190.315 13.756 189.931 13.78V11.8H198.787V13.384ZM222.792 19.828C222.528 17.668 221.784 16.012 220.56 14.86C219.336 13.684 217.74 13.084 215.772 13.06C214.524 13.06 213.372 13.336 212.316 13.888C211.26 14.44 210.348 15.22 209.58 16.228C208.812 17.212 208.212 18.388 207.78 19.756C207.372 21.1 207.168 22.576 207.168 24.184C207.168 26.368 207.552 28.312 208.32 30.016C209.088 31.696 210.144 33.004 211.488 33.94C212.856 34.876 214.404 35.344 216.132 35.344C217.668 35.344 219.18 34.984 220.668 34.264C222.18 33.52 223.428 32.476 224.412 31.132L225.6 32.14C224.52 33.628 223.368 34.768 222.144 35.56C220.92 36.352 219.696 36.88 218.472 37.144C217.272 37.432 216.18 37.576 215.196 37.576C213.396 37.576 211.74 37.252 210.228 36.604C208.716 35.956 207.408 35.056 206.304 33.904C205.224 32.728 204.384 31.372 203.784 29.836C203.208 28.276 202.92 26.596 202.92 24.796C202.92 23.116 203.184 21.472 203.712 19.864C204.24 18.256 205.02 16.804 206.052 15.508C207.084 14.188 208.38 13.144 209.94 12.376C211.524 11.608 213.36 11.224 215.448 11.224C216.672 11.224 217.86 11.392 219.012 11.728C220.188 12.064 221.316 12.58 222.396 13.276L222.216 11.476H224.448V19.828H222.792ZM241.883 27.892C241.883 26.86 241.727 26.116 241.415 25.66C241.127 25.204 240.683 24.928 240.083 24.832C239.483 24.712 238.739 24.676 237.851 24.724L235.763 24.796V32.284C235.763 32.932 235.751 33.508 235.727 34.012C235.727 34.492 235.703 34.888 235.655 35.2L241.847 35.128C242.783 35.104 243.623 34.936 244.367 34.624C245.111 34.288 245.699 33.724 246.131 32.932C246.563 32.14 246.779 31.06 246.779 29.692H248.363L248.147 37H229.427V35.416C230.219 35.368 230.783 35.2 231.119 34.912C231.479 34.624 231.707 34.192 231.803 33.616C231.899 33.04 231.947 32.308 231.947 31.42V16.444C231.947 15.916 231.959 15.412 231.983 14.932C232.007 14.428 232.031 13.996 232.055 13.636C231.647 13.66 231.203 13.684 230.723 13.708C230.243 13.732 229.811 13.756 229.427 13.78V11.8H246.995L247.175 18.316H245.591C245.591 16.948 245.363 15.904 244.907 15.184C244.475 14.464 243.899 13.984 243.179 13.744C242.483 13.504 241.727 13.396 240.911 13.42L238.391 13.492C237.647 13.492 237.083 13.624 236.699 13.888C236.315 14.128 236.063 14.536 235.943 15.112C235.823 15.664 235.763 16.42 235.763 17.38V23.032H241.703L241.487 19.936H243.467V27.892H241.883ZM267.228 19.576C267.108 18.352 266.796 17.248 266.292 16.264C265.788 15.28 265.092 14.5 264.204 13.924C263.316 13.324 262.212 13.036 260.892 13.06C259.548 13.06 258.48 13.432 257.688 14.176C256.896 14.92 256.5 15.82 256.5 16.876C256.5 17.812 256.764 18.604 257.292 19.252C257.82 19.876 258.528 20.44 259.416 20.944C260.328 21.448 261.348 21.952 262.476 22.456C263.388 22.84 264.312 23.272 265.248 23.752C266.184 24.232 267.036 24.784 267.804 25.408C268.572 26.008 269.184 26.74 269.64 27.604C270.096 28.444 270.324 29.44 270.324 30.592C270.324 31.936 269.976 33.136 269.28 34.192C268.584 35.248 267.588 36.076 266.292 36.676C265.02 37.276 263.472 37.576 261.648 37.576C260.616 37.576 259.524 37.42 258.372 37.108C257.244 36.796 256.212 36.352 255.276 35.776L255.456 37.288H253.26L253.116 29.368H254.844C255.036 31.456 255.78 33.04 257.076 34.12C258.396 35.176 259.968 35.704 261.792 35.704C262.704 35.704 263.532 35.536 264.276 35.2C265.02 34.864 265.608 34.384 266.04 33.76C266.472 33.136 266.688 32.404 266.688 31.564C266.688 30.58 266.388 29.752 265.788 29.08C265.212 28.408 264.468 27.832 263.556 27.352C262.668 26.872 261.732 26.416 260.748 25.984C259.764 25.552 258.804 25.096 257.868 24.616C256.956 24.136 256.128 23.584 255.384 22.96C254.64 22.336 254.052 21.604 253.62 20.764C253.188 19.9 252.972 18.892 252.972 17.74C252.972 17.068 253.092 16.36 253.332 15.616C253.572 14.872 253.98 14.164 254.556 13.492C255.132 12.82 255.912 12.28 256.896 11.872C257.904 11.44 259.164 11.224 260.676 11.224C261.588 11.224 262.608 11.356 263.736 11.62C264.888 11.884 265.932 12.352 266.868 13.024L266.724 11.512H268.884V19.576H267.228Z" fill="black"/>
<path fill-rule="evenodd" clip-rule="evenodd" d="M121 71.5H0V73.5H121V71.5ZM156 73.5H278V71.5H156V73.5Z" fill="#EC5598"/>
<path fill-rule="evenodd" clip-rule="evenodd" d="M129.317 68.2315C127.079 71.3114 127.762 75.6222 130.842 77.8598C130.979 77.9592 131.118 78.0531 131.261 78.1417C131.44 78.2533 131.677 78.1982 131.788 78.0186C131.9 77.8389 131.845 77.6028 131.665 77.4912C131.538 77.4124 131.414 77.3287 131.292 77.2402C128.554 75.2512 127.948 71.4194 129.937 68.6817C131.231 66.8999 133.353 65.9718 135.505 66.1855C135.716 66.2064 135.903 66.0527 135.924 65.8423C135.945 65.6318 135.791 65.4443 135.581 65.4234C133.161 65.183 130.773 66.2274 129.317 68.2315Z" fill="#EC5598"/>
<path fill-rule="evenodd" clip-rule="evenodd" d="M132.468 80.8367C134.706 83.9166 139.017 84.5994 142.097 82.3617C142.26 82.2429 142.418 82.1177 142.569 81.9863C142.729 81.8477 142.746 81.6058 142.607 81.4461C142.469 81.2864 142.227 81.2692 142.067 81.4079C141.932 81.5248 141.792 81.6363 141.647 81.7421C138.909 83.7311 135.077 83.1242 133.088 80.3865C132.073 78.989 131.706 77.2634 132.033 75.6014C132.074 75.3939 131.939 75.1926 131.731 75.1518C131.524 75.111 131.322 75.2462 131.282 75.4537C130.914 77.3225 131.327 79.2651 132.468 80.8367Z" fill="#EC5598"/>
<path fill-rule="evenodd" clip-rule="evenodd" d="M145.43 81.7349C149.051 80.5585 151.032 76.6697 149.856 73.0491C149.792 72.8512 149.719 72.6572 149.638 72.4674C149.555 72.2729 149.33 72.1824 149.135 72.2654C148.941 72.3484 148.851 72.5734 148.934 72.7679C149.006 72.9368 149.07 73.1095 149.128 73.2857C150.173 76.5041 148.412 79.9608 145.194 81.0065C142.321 81.94 139.208 80.6374 137.848 77.9765C137.751 77.7882 137.521 77.7136 137.332 77.8099C137.144 77.9062 137.069 78.1369 137.166 78.3252C138.697 81.3199 142.198 82.7851 145.43 81.7349Z" fill="#EC5598"/>
<path fill-rule="evenodd" clip-rule="evenodd" d="M150.29 69.6849C150.29 65.8779 147.204 62.7917 143.397 62.7917C143.187 62.7917 142.977 62.8012 142.769 62.8199C142.559 62.8389 142.403 63.0251 142.422 63.2358C142.441 63.4464 142.628 63.6017 142.838 63.5827C143.023 63.566 143.21 63.5576 143.397 63.5576C146.781 63.5576 149.524 66.3009 149.524 69.6849C149.524 71.6998 148.545 73.5496 146.93 74.6913C146.758 74.8134 146.717 75.0524 146.839 75.2251C146.961 75.3978 147.2 75.4388 147.372 75.3167C149.188 74.0328 150.29 71.9511 150.29 69.6849Z" fill="#EC5598"/>
<path fill-rule="evenodd" clip-rule="evenodd" d="M132.374 66.0016C133.42 62.7832 136.876 61.0219 140.095 62.0677C142.507 62.8514 144.162 65.0246 144.318 67.5136C144.332 67.7246 144.513 67.885 144.725 67.8718C144.936 67.8586 145.096 67.6767 145.083 67.4657C144.907 64.6656 143.045 62.2209 140.331 61.3392C136.711 60.1628 132.822 62.1443 131.646 65.7649C131.572 65.9926 131.51 66.2227 131.46 66.4545C131.415 66.6613 131.547 66.865 131.754 66.9094C131.961 66.9538 132.164 66.8222 132.209 66.6154C132.253 66.4092 132.308 66.2044 132.374 66.0016Z" fill="#EC5598"/>
<path fill-rule="evenodd" clip-rule="evenodd" d="M137.27 67.7701C133.886 67.7701 131.143 70.5133 131.143 73.8973C131.143 77.2813 133.886 80.0246 137.27 80.0246C138.048 80.0246 138.807 79.8791 139.516 79.5994C139.713 79.5219 139.81 79.2995 139.732 79.1027C139.655 78.9059 139.432 78.8093 139.236 78.8869C138.615 79.1315 137.952 79.2587 137.27 79.2587C134.309 79.2587 131.908 76.8583 131.908 73.8973C131.908 70.9363 134.309 68.536 137.27 68.536C137.943 68.536 138.599 68.6601 139.213 68.8989C139.41 68.9756 139.632 68.8779 139.709 68.6808C139.785 68.4837 139.688 68.2618 139.491 68.1851C138.789 67.912 138.039 67.7701 137.27 67.7701Z" fill="#EC5598"/>
<path fill-rule="evenodd" clip-rule="evenodd" d="M135.355 73.8971C135.355 77.2811 138.098 80.0244 141.482 80.0244C144.866 80.0244 147.609 77.2811 147.609 73.8971C147.609 72.1788 146.898 70.5735 145.668 69.4224C145.513 69.2779 145.271 69.286 145.127 69.4404C144.982 69.5948 144.99 69.8372 145.145 69.9817C146.221 70.9894 146.844 72.393 146.844 73.8971C146.844 76.8581 144.443 79.2585 141.482 79.2585C138.521 79.2585 136.121 76.8581 136.121 73.8971C136.121 73.6314 136.14 73.3682 136.178 73.1088C136.209 72.8996 136.065 72.705 135.855 72.6742C135.646 72.6434 135.451 72.788 135.421 72.9973C135.377 73.2935 135.355 73.594 135.355 73.8971Z" fill="#EC5598"/>
<path fill-rule="evenodd" clip-rule="evenodd" d="M139.567 64.7065C142.528 64.7065 144.929 67.1068 144.929 70.0678C144.929 71.7995 144.102 73.3925 142.731 74.3965L141.93 74.8958C141.751 75.0078 141.696 75.2441 141.808 75.4235C141.92 75.6028 142.156 75.6574 142.336 75.5454L143.16 75.0303C144.75 73.8677 145.695 72.0463 145.695 70.0678C145.695 66.6838 142.951 63.9406 139.567 63.9406C136.504 63.9406 133.923 66.2015 133.5 69.2063C133.471 69.4157 133.617 69.6094 133.826 69.6389C134.036 69.6683 134.229 69.5225 134.259 69.313C134.629 66.685 136.887 64.7065 139.567 64.7065Z" fill="#EC5598"/>
<path fill-rule="evenodd" clip-rule="evenodd" d="M143.78 72.3655C143.78 70.039 141.894 68.153 139.567 68.153C137.241 68.153 135.355 70.039 135.355 72.3655C135.355 74.692 137.241 76.578 139.567 76.578C141.894 76.578 143.78 74.692 143.78 72.3655ZM136.121 72.3655C136.121 70.462 137.664 68.9189 139.567 68.9189C141.471 68.9189 143.014 70.462 143.014 72.3655C143.014 74.269 141.471 75.8121 139.567 75.8121C137.664 75.8121 136.121 74.269 136.121 72.3655Z" fill="#EC5598"/>
<path fill-rule="evenodd" clip-rule="evenodd" d="M141.865 72.3655C141.865 71.0965 140.836 70.0678 139.567 70.0678C138.298 70.0678 137.27 71.0965 137.27 72.3655C137.27 73.6345 138.298 74.6632 139.567 74.6632C140.836 74.6632 141.865 73.6345 141.865 72.3655ZM138.036 72.3655C138.036 71.5195 138.721 70.8337 139.567 70.8337C140.413 70.8337 141.099 71.5195 141.099 72.3655C141.099 73.2115 140.413 73.8973 139.567 73.8973C138.721 73.8973 138.036 73.2115 138.036 72.3655Z" fill="#EC5598"/>
<path fill-rule="evenodd" clip-rule="evenodd" d="M136.758 73.2843C136.569 75.1525 137.592 76.578 139.568 76.578V75.8121C138.09 75.8121 137.373 74.8132 137.52 73.3615C137.661 71.9734 138.556 70.8337 139.568 70.8337V70.0678C138.096 70.0678 136.934 71.5475 136.758 73.2843Z" fill="#EC5598"/>
</svg>
